<svg width="40.000000" height="40.000000" viewBox="0 0 40 40" fill="none" xmlns="http://www.w3.org/2000/svg" xmlns:xlink="http://www.w3.org/1999/xlink">
	<desc>
			Created with Pixso.
	</desc>
	<defs/>
	<path id="Logo" d="M8.77 19L0 19L0 6C0 4.4 0.63 2.88 1.75 1.75C2.88 0.63 4.4 0 6 0L19 0L19 8.77C19 10.77 18.87 12.85 17.82 14.55C17 15.88 15.88 17 14.55 17.82C12.85 18.87 10.77 19 8.77 19ZM20 40C31.04 40 40 31.04 40 20L40 6C40 4.4 39.36 2.88 38.24 1.75C37.11 0.63 35.59 0 34 0L21 0L21 8.77C21 10.77 21.12 12.85 22.17 14.55C22.92 15.77 23.92 16.82 25.12 17.61C26.31 18.41 27.66 18.95 29.07 19.18L29.45 19.24C29.52 19.26 29.58 19.29 29.64 19.33C29.72 19.38 29.79 19.45 29.85 19.53C29.94 19.67 30 19.83 30 20C30 20.16 29.94 20.32 29.85 20.46C29.75 20.6 29.61 20.7 29.45 20.75L29.07 20.81C27 21.15 25.09 22.13 23.61 23.61C22.13 25.09 21.15 27 20.81 29.07L20.75 29.45C20.7 29.61 20.6 29.75 20.46 29.85C20.32 29.94 20.16 30 20 30C19.93 30 19.86 29.99 19.8 29.97C19.7 29.95 19.61 29.9 19.53 29.85C19.39 29.75 19.29 29.61 19.24 29.45L19.18 29.07C18.94 27.66 18.41 26.31 17.61 25.12C16.82 23.92 15.77 22.92 14.55 22.17C12.85 21.12 10.77 21 8.77 21L0.02 21C0.54 31.58 9.29 40 20 40Z" fill="#6D1600" fill-opacity="1.000000" fill-rule="evenodd"/>
</svg>
