<svg width="17.000000" height="17.000000" viewBox="0 0 17 17" fill="none" xmlns="http://www.w3.org/2000/svg" xmlns:xlink="http://www.w3.org/1999/xlink">
	<desc>
			Created with Pixso.
	</desc>
	<defs>
		<clipPath id="clip3221_455">
			<rect id="CalendarBlank" width="17.000000" height="17.000000" transform="translate(-0.333008 0.000000)" fill="white" fill-opacity="0"/>
		</clipPath>
	</defs>
	<rect id="CalendarBlank" width="17.000000" height="17.000000" transform="translate(-0.333008 0.000000)" fill="#FFFFFF" fill-opacity="0"/>
	<g clip-path="url(#clip3221_455)">
		<path id="Vector" d="M13.47 2.12L11.88 2.12L11.88 1.59C11.88 1.45 11.83 1.31 11.73 1.21C11.63 1.11 11.49 1.06 11.35 1.06C11.21 1.06 11.07 1.11 10.97 1.21C10.87 1.31 10.82 1.45 10.82 1.59L10.82 2.12L5.51 2.12L5.51 1.59C5.51 1.45 5.45 1.31 5.35 1.21C5.25 1.11 5.12 1.06 4.97 1.06C4.83 1.06 4.7 1.11 4.6 1.21C4.5 1.31 4.44 1.45 4.44 1.59L4.44 2.12L2.85 2.12C2.57 2.12 2.3 2.23 2.1 2.43C1.9 2.63 1.79 2.9 1.79 3.18L1.79 13.81C1.79 14.09 1.9 14.36 2.1 14.56C2.3 14.76 2.57 14.87 2.85 14.87L13.47 14.87C13.76 14.87 14.03 14.76 14.23 14.56C14.42 14.36 14.54 14.09 14.54 13.81L14.54 3.18C14.54 2.9 14.42 2.63 14.23 2.43C14.03 2.23 13.76 2.12 13.47 2.12ZM13.47 5.31L2.85 5.31L2.85 3.18L4.44 3.18L4.44 3.71C4.44 3.85 4.5 3.99 4.6 4.09C4.7 4.19 4.83 4.25 4.97 4.25C5.12 4.25 5.25 4.19 5.35 4.09C5.45 3.99 5.51 3.85 5.51 3.71L5.51 3.18L10.82 3.18L10.82 3.71C10.82 3.85 10.87 3.99 10.97 4.09C11.07 4.19 11.21 4.25 11.35 4.25C11.49 4.25 11.63 4.19 11.73 4.09C11.83 3.99 11.88 3.85 11.88 3.71L11.88 3.18L13.47 3.18L13.47 5.31Z" fill="#282A3A" fill-opacity="1.000000" fill-rule="nonzero"/>
	</g>
</svg>
