<svg width="48.000000" height="48.000000" viewBox="0 0 48 48" fill="none" xmlns="http://www.w3.org/2000/svg" xmlns:xlink="http://www.w3.org/1999/xlink">
	<desc>
			Created with Pixso.
	</desc>
	<defs>
		<clipPath id="clip3219_220">
			<rect id="Instagram" width="48.000000" height="48.000000" fill="white" fill-opacity="0"/>
		</clipPath>
	</defs>
	<rect id="Instagram" width="48.000000" height="48.000000" fill="#FFFFFF" fill-opacity="0.080000"/>
	<g clip-path="url(#clip3219_220)">
		<path id="Vector" d="M20 24.06C20 21.85 21.79 20.05 24 20.05C26.21 20.05 28 21.85 28 24.06C28 26.27 26.21 28.06 24 28.06C21.79 28.06 20 26.27 20 24.06ZM17.84 24.06C17.84 27.46 20.6 30.22 24 30.22C27.41 30.22 30.17 27.46 30.17 24.06C30.17 20.65 27.41 17.89 24 17.89C20.6 17.89 17.84 20.65 17.84 24.06ZM28.97 17.64C28.97 17.93 29.06 18.21 29.21 18.45C29.37 18.68 29.6 18.87 29.86 18.98C30.12 19.09 30.41 19.11 30.69 19.06C30.97 19 31.23 18.87 31.43 18.66C31.63 18.46 31.77 18.21 31.83 17.93C31.88 17.65 31.85 17.36 31.74 17.09C31.63 16.83 31.45 16.61 31.21 16.45C30.98 16.29 30.7 16.2 30.41 16.2C30.03 16.2 29.66 16.36 29.39 16.63C29.12 16.9 28.97 17.26 28.97 17.64ZM19.15 33.83C17.98 33.78 17.34 33.58 16.92 33.42C16.36 33.2 15.96 32.94 15.54 32.52C15.12 32.1 14.86 31.7 14.64 31.14C14.48 30.72 14.28 30.08 14.23 28.91C14.17 27.64 14.16 27.26 14.16 24.06C14.16 20.85 14.17 20.47 14.23 19.2C14.28 18.03 14.48 17.4 14.64 16.97C14.86 16.41 15.12 16.01 15.54 15.59C15.96 15.17 16.36 14.91 16.92 14.69C17.34 14.53 17.98 14.33 19.15 14.28C20.42 14.22 20.8 14.21 24 14.21C27.21 14.21 27.59 14.22 28.85 14.28C30.03 14.33 30.66 14.53 31.08 14.69C31.64 14.91 32.04 15.17 32.47 15.59C32.89 16.01 33.15 16.41 33.36 16.97C33.53 17.4 33.72 18.03 33.78 19.2C33.83 20.47 33.85 20.85 33.85 24.06C33.85 27.26 33.83 27.64 33.78 28.91C33.72 30.08 33.53 30.72 33.36 31.14C33.15 31.7 32.89 32.1 32.47 32.52C32.05 32.94 31.64 33.2 31.08 33.42C30.66 33.58 30.03 33.78 28.85 33.83C27.59 33.89 27.21 33.9 24 33.9C20.8 33.9 20.42 33.89 19.15 33.83ZM19.05 12.12C17.77 12.18 16.9 12.38 16.14 12.68C15.35 12.98 14.68 13.39 14.01 14.06C13.34 14.73 12.93 15.4 12.63 16.19C12.33 16.95 12.13 17.83 12.07 19.1C12.01 20.39 12 20.79 12 24.06C12 27.32 12.01 27.73 12.07 29.01C12.13 30.29 12.33 31.16 12.63 31.92C12.93 32.71 13.34 33.38 14.01 34.05C14.68 34.72 15.35 35.13 16.14 35.44C16.9 35.73 17.77 35.94 19.05 35.99C20.33 36.05 20.74 36.07 24 36.07C27.26 36.07 27.67 36.05 28.95 35.99C30.23 35.94 31.1 35.73 31.87 35.44C32.66 35.13 33.33 34.72 33.99 34.05C34.66 33.38 35.07 32.71 35.38 31.92C35.68 31.16 35.88 30.29 35.94 29.01C36 27.73 36.01 27.32 36.01 24.06C36.01 20.79 36 20.39 35.94 19.1C35.88 17.83 35.68 16.95 35.38 16.19C35.07 15.4 34.66 14.73 33.99 14.06C33.33 13.39 32.66 12.98 31.87 12.68C31.1 12.38 30.23 12.18 28.95 12.12C27.67 12.06 27.26 12.05 24 12.05C20.74 12.05 20.33 12.06 19.05 12.12Z" fill="#FFFFFF" fill-opacity="1.000000" fill-rule="nonzero"/>
		<path id="Vector" d="M20 24.06C20 21.85 21.79 20.05 24 20.05C26.21 20.05 28 21.85 28 24.06C28 26.27 26.21 28.06 24 28.06C21.79 28.06 20 26.27 20 24.06ZM17.84 24.06C17.84 27.46 20.6 30.22 24 30.22C27.41 30.22 30.17 27.46 30.17 24.06C30.17 20.65 27.41 17.89 24 17.89C20.6 17.89 17.84 20.65 17.84 24.06ZM28.97 17.64C28.97 17.93 29.06 18.21 29.21 18.45C29.37 18.68 29.6 18.87 29.86 18.98C30.12 19.09 30.41 19.11 30.69 19.06C30.97 19 31.23 18.87 31.43 18.66C31.63 18.46 31.77 18.21 31.83 17.93C31.88 17.65 31.85 17.36 31.74 17.09C31.63 16.83 31.45 16.61 31.21 16.45C30.98 16.29 30.7 16.2 30.41 16.2C30.03 16.2 29.66 16.36 29.39 16.63C29.12 16.9 28.97 17.26 28.97 17.64ZM19.15 33.83C17.98 33.78 17.34 33.58 16.92 33.42C16.36 33.2 15.96 32.94 15.54 32.52C15.12 32.1 14.86 31.7 14.64 31.14C14.48 30.72 14.28 30.08 14.23 28.91C14.17 27.64 14.16 27.26 14.16 24.06C14.16 20.85 14.17 20.47 14.23 19.2C14.28 18.03 14.48 17.4 14.64 16.97C14.86 16.41 15.12 16.01 15.54 15.59C15.96 15.17 16.36 14.91 16.92 14.69C17.34 14.53 17.98 14.33 19.15 14.28C20.42 14.22 20.8 14.21 24 14.21C27.21 14.21 27.59 14.22 28.85 14.28C30.03 14.33 30.66 14.53 31.08 14.69C31.64 14.91 32.04 15.17 32.47 15.59C32.89 16.01 33.15 16.41 33.36 16.97C33.53 17.4 33.72 18.03 33.78 19.2C33.83 20.47 33.85 20.85 33.85 24.06C33.85 27.26 33.83 27.64 33.78 28.91C33.72 30.08 33.53 30.72 33.36 31.14C33.15 31.7 32.89 32.1 32.47 32.52C32.05 32.94 31.64 33.2 31.08 33.42C30.66 33.58 30.03 33.78 28.85 33.83C27.59 33.89 27.21 33.9 24 33.9C20.8 33.9 20.42 33.89 19.15 33.83ZM19.05 12.12C17.77 12.18 16.9 12.38 16.14 12.68C15.35 12.98 14.68 13.39 14.01 14.06C13.34 14.73 12.93 15.4 12.63 16.19C12.33 16.95 12.13 17.83 12.07 19.1C12.01 20.39 12 20.79 12 24.06C12 27.32 12.01 27.73 12.07 29.01C12.13 30.29 12.33 31.16 12.63 31.92C12.93 32.71 13.34 33.38 14.01 34.05C14.68 34.72 15.35 35.13 16.14 35.44C16.9 35.73 17.77 35.94 19.05 35.99C20.33 36.05 20.74 36.07 24 36.07C27.26 36.07 27.67 36.05 28.95 35.99C30.23 35.94 31.1 35.73 31.87 35.44C32.66 35.13 33.33 34.72 33.99 34.05C34.66 33.38 35.07 32.71 35.38 31.92C35.68 31.16 35.88 30.29 35.94 29.01C36 27.73 36.01 27.32 36.01 24.06C36.01 20.79 36 20.39 35.94 19.1C35.88 17.83 35.68 16.95 35.38 16.19C35.07 15.4 34.66 14.73 33.99 14.06C33.33 13.39 32.66 12.98 31.87 12.68C31.1 12.38 30.23 12.18 28.95 12.12C27.67 12.06 27.26 12.05 24 12.05C20.74 12.05 20.33 12.06 19.05 12.12Z" fill="#FFFFFF" fill-opacity="1.000000" fill-rule="nonzero"/>
	</g>
</svg>
