<svg width="58.000000" height="58.000000" viewBox="0 0 58 58" fill="none" xmlns="http://www.w3.org/2000/svg" xmlns:xlink="http://www.w3.org/1999/xlink">
	<desc>
			Created with Pixso.
	</desc>
	<defs/>
	<path id="Logo" d="M12.72 27.55L0 27.55L0 8.69C0 6.39 0.91 4.17 2.54 2.54C4.18 0.91 6.39 0 8.7 0L27.54 0L27.54 12.72C27.54 15.62 27.37 18.63 25.85 21.1C24.66 23.03 23.03 24.66 21.1 25.85C18.63 27.37 15.62 27.55 12.72 27.55ZM29 58C45.01 58 58 45.01 58 29L58 8.69C58 6.39 57.08 4.17 55.45 2.54C53.81 0.91 51.6 0 49.29 0L30.45 0L30.45 12.72C30.45 15.62 30.62 18.63 32.14 21.1C33.23 22.87 34.69 24.38 36.42 25.54C38.15 26.7 40.1 27.47 42.15 27.81L42.71 27.9C42.81 27.93 42.9 27.97 42.98 28.03C43.1 28.11 43.2 28.21 43.28 28.32C43.42 28.52 43.5 28.75 43.5 29C43.5 29.24 43.42 29.47 43.28 29.67C43.14 29.87 42.94 30.01 42.71 30.09L42.15 30.18C39.16 30.67 36.39 32.09 34.24 34.24C32.09 36.39 30.67 39.16 30.18 42.16L30.09 42.71C30.01 42.94 29.87 43.14 29.67 43.28C29.47 43.42 29.24 43.5 29 43.5C28.9 43.5 28.81 43.48 28.71 43.46C28.57 43.43 28.44 43.36 28.32 43.28C28.12 43.14 27.98 42.94 27.9 42.71L27.81 42.16C27.47 40.1 26.7 38.15 25.54 36.42C24.38 34.69 22.87 33.23 21.1 32.14C18.63 30.62 15.62 30.45 12.72 30.45L0.03 30.45C0.79 45.79 13.47 58 29 58Z" fill="#FFFFFF" fill-opacity="1.000000" fill-rule="evenodd"/>
</svg>
