<svg width="24.000000" height="24.000000" viewBox="0 0 24 24" fill="none" xmlns="http://www.w3.org/2000/svg" xmlns:xlink="http://www.w3.org/1999/xlink">
	<desc>
			Created with Pixso.
	</desc>
	<defs>
		<clipPath id="clip3223_484">
			<rect id="ShoppingBagOpen" width="24.000000" height="24.000000" fill="white" fill-opacity="0"/>
		</clipPath>
	</defs>
	<g clip-path="url(#clip3223_484)">
		<path id="Vector" d="M20.25 4.5C20.66 4.5 21 4.83 21 5.25L21 18.75C21 19.16 20.66 19.5 20.25 19.5L3.75 19.5C3.33 19.5 3 19.16 3 18.75L3 5.25C3 4.83 3.33 4.5 3.75 4.5L20.25 4.5Z" stroke="#282A3A" stroke-opacity="1.000000" stroke-width="1.000000" stroke-linejoin="round"/>
		<path id="Vector" d="M3 7.5L21 7.5" stroke="#282A3A" stroke-opacity="1.000000" stroke-width="1.000000" stroke-linejoin="round" stroke-linecap="round"/>
		<path id="Vector" d="M15.75 10.5C15.75 11.49 15.35 12.44 14.65 13.15C13.94 13.85 12.99 14.25 12 14.25C11 14.25 10.05 13.85 9.34 13.15C8.64 12.44 8.25 11.49 8.25 10.5" stroke="#282A3A" stroke-opacity="1.000000" stroke-width="1.000000" stroke-linejoin="round" stroke-linecap="round"/>
	</g>
</svg>
