<svg width="19.000000" height="18.000000" viewBox="0 0 19 18" fill="none" xmlns="http://www.w3.org/2000/svg" xmlns:xlink="http://www.w3.org/1999/xlink">
	<desc>
			Created with Pixso.
	</desc>
	<defs/>
	<path id="Star 2" d="M8.38 -0.08L6.86 4.6C6.72 5.01 6.34 5.29 5.91 5.29L0.99 5.29C0.02 5.29 -0.38 6.53 0.41 7.1L4.38 9.98C4.73 10.24 4.88 10.69 4.74 11.1L3.23 15.78C2.93 16.7 3.98 17.46 4.76 16.89L8.74 14.01C9.09 13.75 9.57 13.75 9.92 14.01L13.89 16.89C14.68 17.46 15.73 16.7 15.43 15.78L13.91 11.1C13.78 10.69 13.92 10.24 14.28 9.98L18.25 7.1C19.03 6.53 18.63 5.29 17.66 5.29L12.75 5.29C12.32 5.29 11.93 5.01 11.8 4.6L10.28 -0.08C9.98 -1 8.68 -1 8.38 -0.08Z" fill="#FFB31F" fill-opacity="1.000000" fill-rule="evenodd"/>
</svg>
