<svg width="19.000000" height="18.000000" viewBox="0 0 19 18" fill="none" xmlns="http://www.w3.org/2000/svg" xmlns:xlink="http://www.w3.org/1999/xlink">
	<desc>
			Created with Pixso.
	</desc>
	<defs/>
	<path id="Star 1" d="M8.04 -0.08L6.53 4.6C6.39 5.01 6.01 5.29 5.57 5.29L0.66 5.29C-0.31 5.29 -0.71 6.53 0.07 7.1L4.05 9.98C4.4 10.24 4.55 10.69 4.41 11.1L2.89 15.78C2.59 16.7 3.65 17.46 4.43 16.89L8.41 14.01C8.76 13.75 9.23 13.75 9.58 14.01L13.56 16.89C14.34 17.46 15.4 16.7 15.1 15.78L13.58 11.1C13.44 10.69 13.59 10.24 13.94 9.98L17.92 7.1C18.7 6.53 18.3 5.29 17.33 5.29L12.42 5.29C11.98 5.29 11.6 5.01 11.46 4.6L9.95 -0.08C9.65 -1 8.34 -1 8.04 -0.08Z" fill="#FFB31F" fill-opacity="1.000000" fill-rule="evenodd"/>
</svg>
