<svg width="48.000000" height="48.000000" viewBox="0 0 48 48" fill="none" xmlns="http://www.w3.org/2000/svg" xmlns:xlink="http://www.w3.org/1999/xlink">
	<desc>
			Created with Pixso.
	</desc>
	<defs>
		<clipPath id="clip3219_218">
			<rect id="Twitter" width="48.000000" height="48.000000" fill="white" fill-opacity="0"/>
		</clipPath>
	</defs>
	<rect id="Twitter" width="48.000000" height="48.000000" fill="#FFFFFF" fill-opacity="0.080000"/>
	<g clip-path="url(#clip3219_218)">
		<path id="Vector" d="M35.91 16.4C35.12 16.74 34.28 16.98 33.43 17.1C33.83 17.03 34.42 16.32 34.65 16.03C35 15.59 35.27 15.09 35.45 14.55C35.45 14.51 35.49 14.45 35.45 14.42C35.43 14.41 35.4 14.41 35.38 14.41C35.36 14.41 35.34 14.41 35.32 14.42C34.39 14.92 33.4 15.31 32.38 15.56C32.35 15.57 32.31 15.58 32.27 15.57C32.24 15.56 32.2 15.54 32.18 15.51C32.1 15.42 32.01 15.33 31.92 15.24C31.5 14.87 31.03 14.56 30.52 14.34C29.83 14.05 29.08 13.93 28.33 13.98C27.61 14.02 26.91 14.22 26.26 14.55C25.62 14.9 25.07 15.37 24.62 15.94C24.15 16.53 23.81 17.21 23.62 17.94C23.47 18.63 23.45 19.35 23.57 20.05C23.57 20.17 23.57 20.18 23.47 20.17C19.4 19.57 16.07 18.12 13.35 15.03C13.23 14.89 13.16 14.89 13.07 15.03C11.88 16.83 12.46 19.68 13.94 21.09C14.14 21.28 14.34 21.46 14.56 21.63C13.88 21.58 13.22 21.4 12.61 21.09C12.5 21.02 12.43 21.06 12.43 21.19C12.41 21.38 12.41 21.57 12.43 21.76C12.55 22.67 12.91 23.53 13.47 24.26C14.03 24.99 14.77 25.55 15.62 25.89C15.83 25.98 16.04 26.05 16.26 26.09C15.64 26.22 14.99 26.24 14.36 26.15C14.22 26.12 14.17 26.2 14.22 26.33C15.06 28.61 16.87 29.3 18.21 29.69C18.39 29.72 18.57 29.72 18.78 29.77C18.78 29.77 18.78 29.77 18.74 29.8C18.35 30.52 16.76 31 16.03 31.25C14.7 31.73 13.28 31.92 11.87 31.79C11.65 31.76 11.6 31.76 11.54 31.79C11.48 31.82 11.54 31.88 11.6 31.94C11.89 32.13 12.17 32.29 12.47 32.45C13.35 32.93 14.28 33.32 15.25 33.59C20.25 34.97 25.88 33.96 29.64 30.22C32.59 27.29 33.63 23.25 33.63 19.2C33.63 19.04 33.82 18.95 33.93 18.87C34.67 18.29 35.33 17.6 35.88 16.83C35.98 16.71 36.02 16.57 36.02 16.42C36.02 16.33 36.02 16.35 35.91 16.4Z" fill="#FFFFFF" fill-opacity="1.000000" fill-rule="nonzero"/>
	</g>
</svg>
