<svg width="17.000000" height="17.000000" viewBox="0 0 17 17" fill="none" xmlns="http://www.w3.org/2000/svg" xmlns:xlink="http://www.w3.org/1999/xlink">
	<desc>
			Created with Pixso.
	</desc>
	<defs>
		<clipPath id="clip3221_450">
			<rect id="User" width="17.000000" height="17.000000" transform="translate(-0.666992 0.000000)" fill="white" fill-opacity="0"/>
		</clipPath>
	</defs>
	<rect id="User" width="17.000000" height="17.000000" transform="translate(-0.666992 0.000000)" fill="#FFFFFF" fill-opacity="0"/>
	<g clip-path="url(#clip3221_450)">
		<path id="Vector" d="M14.66 14.6C14.62 14.69 14.55 14.75 14.47 14.8C14.39 14.85 14.3 14.87 14.2 14.87L1.45 14.87C1.36 14.87 1.27 14.85 1.19 14.8C1.11 14.75 1.04 14.68 0.99 14.6C0.95 14.52 0.92 14.43 0.92 14.34C0.92 14.25 0.95 14.15 0.99 14.07C2.01 12.32 3.56 11.07 5.38 10.48C4.48 9.94 3.78 9.12 3.39 8.15C3 7.18 2.94 6.11 3.22 5.1C3.5 4.09 4.1 3.2 4.93 2.57C5.76 1.93 6.78 1.59 7.83 1.59C8.88 1.59 9.89 1.93 10.73 2.57C11.56 3.2 12.16 4.09 12.44 5.1C12.72 6.11 12.66 7.18 12.26 8.15C11.87 9.12 11.17 9.94 10.27 10.48C12.09 11.07 13.65 12.32 14.66 14.07C14.71 14.15 14.73 14.25 14.73 14.34C14.73 14.43 14.71 14.52 14.66 14.6Z" fill="#282A3A" fill-opacity="1.000000" fill-rule="nonzero"/>
	</g>
</svg>
