<svg width="48.000000" height="48.000000" viewBox="0 0 48 48" fill="none" xmlns="http://www.w3.org/2000/svg" xmlns:xlink="http://www.w3.org/1999/xlink">
	<desc>
			Created with Pixso.
	</desc>
	<defs>
		<clipPath id="clip3219_225">
			<rect id="Youtube" width="48.000000" height="48.000000" fill="white" fill-opacity="0"/>
		</clipPath>
	</defs>
	<rect id="Youtube" width="48.000000" height="48.000000" fill="#FFFFFF" fill-opacity="0.080000"/>
	<g clip-path="url(#clip3219_225)">
		<path id="Vector" d="M37.35 17.39C37.03 16.21 36.11 15.29 34.93 14.97C32.79 14.39 24.24 14.39 24.24 14.39C24.24 14.39 15.68 14.39 13.55 14.97C12.37 15.28 11.44 16.21 11.13 17.39C10.56 19.53 10.56 23.99 10.56 23.99C10.56 23.99 10.56 28.46 11.13 30.6C11.44 31.78 12.37 32.7 13.55 33.02C15.68 33.59 24.24 33.59 24.24 33.59C24.24 33.59 32.79 33.59 34.93 33.02C36.1 32.71 37.03 31.78 37.35 30.6C37.92 28.46 37.92 23.99 37.92 23.99C37.92 23.99 37.92 19.53 37.35 17.39Z" fill="#FFFFFF" fill-opacity="1.000000" fill-rule="nonzero"/>
		<path id="Vector" d="M21.5 28.11L28.61 24L21.5 19.88L21.5 28.11Z" fill="#282A3A" fill-opacity="1.000000" fill-rule="nonzero"/>
	</g>
</svg>
